<?xml version="1.0" encoding="utf-8"?>
<!-- Generator: Adobe Illustrator 16.0.0, SVG Export Plug-In . SVG Version: 6.00 Build 0)  -->
<!DOCTYPE svg PUBLIC "-//W3C//DTD SVG 1.1//EN" "http://www.w3.org/Graphics/SVG/1.1/DTD/svg11.dtd">
<svg version="1.1" xmlns="http://www.w3.org/2000/svg" xmlns:xlink="http://www.w3.org/1999/xlink" x="0px" y="0px" width="64px"
	 height="64px" viewBox="0 0 64 64" enable-background="new 0 0 64 64" xml:space="preserve">
<g id="Users">
	<g id="Body" display="none">
	</g>
</g>
<g id="Arrow">
</g>
<g id="Streams">
</g>
<g id="Clean__x28_320_x__x_480_x29_">
</g>
<g id="Forums">
</g>
<g id="Logo">
	<path id="path36_1_" fill="#FBFBFB" d="M42.911,8.838c-0.665,2.181-6.49,5.017-10.426,0.023
		C36.49,10.66,39.845,10.559,42.911,8.838 M29.036,3.217c0.521,0.624,2.512,1,3.496,0.211c0,0,0.212-0.72-0.688-0.899
		C30.829,2.335,29.86,2.935,29.036,3.217 M0.951,8.301C1.67,6.612,4.312,4.035,7.889,5.739c2.405,0.999,3.554-0.774,3.891-1.985
		c1.421,1.424,0.64,3.179,0.069,3.669c0.469,0.251,2.423,1.367,2.51,3.75c-1.969,0.563-3.828-0.341-4.389-0.748
		c-0.133,0.641-1.007,1.732-2.89,1.365c0.967-1.039,1.424-2.884,0.039-3.658L6.757,7.946c-2.03-0.866-3.233,0.647-3.56,1.383
		c-0.671,1.491-0.087,3.281,1.295,3.998l9.076,4.685c4.655,2.348,4.202,6.716,3.196,8.731l-4.18,8.265
		c-0.771,1.64,0.396,2.78,1.226,3.163c1.336,0.612,2.945,0.081,3.578-1.146l5.608-10.964c-0.313,0.25-1.155,0.555-1.896,0.217
		c2.46-3.991-1.904-3.829-0.47-7.443c-0.319,0.423-1.357,0.687-1.867,0.507c2.205-4.951-2.772-4.906-0.252-8.805
		c-0.265,0.212-1.319,0.15-1.763-0.223c3.076-3.07,0.305-5.142,4.053-6.398c-0.546,0.023-1.232-0.555-1.364-1.196
		c2.579,0.171,3.794-3.147,7.481-2.672c1.519,0.189,2.844,0.611,4.197,1.032c0.771,0.249,1.361-0.03,2.068,0.313
		c0.267,0.281,0.566,1.125,0.566,1.125c0.961,0.203,2.534,0.65,2.972,1.108c0.133,0.492,0,0.954-0.189,1.321
		c0,0-0.218,0.085-0.279,0.35c-0.271,1.358-0.703,2.529-1.485,3.232l-2.28-0.57c0,0-1.808,1.002-2.395,2.509
		c-0.344,0.875-0.189,1.421,0.875,1.438c0.917,0.016,2.71-0.377,3.42-0.487c0.304,0.773,0.443,2.25-0.23,2.758
		c-0.368,0.279-2.289,0.178-2.87,0.132c0.151,2.098,1.655,3.375,4.233,2.531c7.402-2.405,12.149-3.093,14.834-9.107
		c-0.091-0.423-0.608-4.538,2.358-5.582c-0.374,1.146-0.688,2.504-0.36,3.615c0.486-1.906,1.926-3.166,4.176-2.939
		c-1.281,0.909-2.07,2.039-2.079,3.203c0.937-0.701,2.687-0.937,3.969-0.374c-6.122,2.765-4.028,7.49-1.33,7.918
		c-1.124,0.922-2.931,0.673-4.015,0l-3.669,4.695c0.686,0.148,1.368,0.687,1.608,1.146c-0.732-0.048-1.919,0.079-2.405,0.563
		c-0.28,0.735-0.638,2.063-0.154,3.986c-1.438-0.745-2.013-1.782-2.229-2.72l-5.394,3.152c2.728,1.438,10.871,5.54,15.035,3.627
		c0.631-0.299,4.74-2.049,6.989,0.24c-1.532-0.053-3.015,0.571-3.289,1.188c1.586,0.179,3.49,0.866,3.967,2.616
		c-0.602-0.374-2.589-0.524-3.618-0.343c0.901,0.703,1.611,1.984,1.502,3.626c0,0-3.29-3.048-6.001-2.268
		c-1.246,0.375-0.64,2.579-0.387,3.101c-2.049-0.296-2.565-2.317-2.574-2.475l-6.284-0.264c-0.424,0.203-0.602,1.094-0.204,1.813
		c-1.089-0.299-1.565-0.935-1.829-1.952c-1.32,0.162-2.061,1.06-2.203,2.405c-0.921-0.952-0.8-2.405-0.424-3.16l-6.843-1.658
		l-2.373,2.624c0,0,12.248,7.661,16.421,7.458c-0.639,1.486-3.658,1.312-5.03,0.798c0.422,0.765,0.116,1.875,0.116,1.875
		s-0.92,0.063-1.882-1.148c0,0-1.845,3.667-1.547,4.318c0.859,1.893,6.857,2.295,6.857,2.295c1.093-0.863,4.092-1.882,5.764-0.61
		c-1.281,0.057-2.312,1.034-2.484,1.643c0.704,0.006,3.158,0.304,3.71,2.577c-1.373-0.625-3.038-0.625-3.552-0.355
		c0.789,0.563,1.752,1.846,1.502,3.459c-1.783-1.873-4.233-2.709-5.858-2.351c-0.956,0.216-1.019,1.645-0.736,2.671
		c-1.359-0.357-2.14-1.766-2.43-2.499l-6.561-2.05c0,0-0.211,0.585-0.194,1.522c-0.821-0.1-1.636-1.101-1.691-1.834
		c0,0-1.232,1.873-3.167,1.547c1.126-1.898,2.668-6.779,2.662-8.031c-0.008-1.574-4.785-2.521-5.582-2.764l-2.311,3.373
		c0,0,2.353,1.154,2.759,2.654c-2.055-0.907-3.718-0.813-4.248-0.688c-0.448,0.488-0.908,1.33-1.087,2.329
		c-0.453-0.279-1.035-1.132-1.098-1.999c-5.25,1.673-5.254,2.476-3.975,7.764c2.38-0.236,6.167-0.351,6.997,2.079
		c-1.438-0.399-3.094-0.143-3.982,0.203c1.117,0.373,3.115,1.531,2.639,3.825c0,0-1.937-2.169-4.17-1.781
		c1.192,0.739,2.686,2.284,1.373,4.204c-1.179-2.444-3.942-2.688-5.099-2.453L14.772,58c-0.663-1.452-2.5-1.267-2.703,0.57
		c-1.734-2.133,0.219-4.46,0.775-4.743l-1.492-3.223c-0.488,0.052-1.729,0.367-2.461-0.503c0.773-0.235,1.443-0.741,1.743-1.266
		c-0.773,0.054-2.805,0.366-3.772-0.959c3.272-0.655,10.887-5.305,11.467-8.173c-1.494,1.213-3.657,1.564-5.529,0.721
		c-1.213-0.53-2.126-1.472-2.601-2.655c-1.352-2.797-4.921-0.53-5.483-5.702c1.427,2.034,4.583,0.675,5.201,3.197
		c1.266-5.571-6.781-1.934-6.834-10.349c1.985,3.437,9.083,2.21,8.499,6.569c3.046-8.991-10.576-3.165-9.835-14.835
		c2.664,5.264,13.233,3.876,12.229,10.109l0.571-1.149c0.804-1.645,0.617-3.929-1.859-5.271l-9.316-4.813
		C0.831,14.227-0.236,11.096,0.951,8.301"/>
</g>
</svg>
