<?xml version="1.0" encoding="utf-8"?>
<!-- Generator: Adobe Illustrator 16.0.0, SVG Export Plug-In . SVG Version: 6.00 Build 0)  -->
<!DOCTYPE svg PUBLIC "-//W3C//DTD SVG 1.1//EN" "http://www.w3.org/Graphics/SVG/1.1/DTD/svg11.dtd">
<svg version="1.1" xmlns="http://www.w3.org/2000/svg" xmlns:xlink="http://www.w3.org/1999/xlink" x="0px" y="0px" width="300px"
	 height="190px" viewBox="0 0 300 190" enable-background="new 0 0 300 190" xml:space="preserve">
<g id="Logo">
	<g id="OLF">
		<path id="path3" fill="#323A45" d="M75.092,64.81c0,16.422-2.451,29.033-7.357,37.854c-4.907,8.817-11.999,13.226-21.267,13.226
			c-9.364,0-16.461-4.44-21.303-13.329c-4.84-8.886-7.26-21.516-7.26-37.883c0-17.095,2.396-29.828,7.195-38.194
			c4.793-8.367,11.983-12.55,21.571-12.55c9.225,0,16.27,4.396,21.133,13.192C72.659,35.925,75.092,48.485,75.092,64.81
			L75.092,64.81z M24.823,64.81c0,14.749,1.842,25.882,5.531,33.411c3.683,7.528,9.054,11.294,16.109,11.294
			c7.1,0,12.492-3.735,16.18-11.195c3.685-7.462,5.53-18.63,5.53-33.513c0-14.692-1.812-25.783-5.433-33.272
			c-3.619-7.484-8.976-11.228-16.077-11.228c-7.282,0-12.741,3.787-16.378,11.363C26.645,39.25,24.823,50.293,24.823,64.81z"/>
		<path id="path5" fill="#323A45" d="M120,115V16h7v93h28v6H120z"/>
		<path id="path36_1_" fill="#CC295B" d="M248.076,26.7c-1.098,3.598-10.707,8.275-17.199,0.04
			C237.484,29.707,243.018,29.539,248.076,26.7 M225.188,17.428c0.857,1.029,4.143,1.648,5.768,0.347c0,0,0.35-1.187-1.137-1.483
			C228.145,15.972,226.547,16.962,225.188,17.428 M178.855,25.815c1.188-2.787,5.545-7.038,11.445-4.226
			c3.967,1.649,5.863-1.277,6.418-3.276c2.344,2.35,1.057,5.245,0.113,6.054c0.773,0.414,3.998,2.255,4.141,6.186
			c-3.248,0.928-6.314-0.563-7.24-1.234c-0.219,1.057-1.66,2.857-4.768,2.252c1.596-1.714,2.35-4.757,0.064-6.034l-0.596-0.307
			c-3.35-1.431-5.334,1.067-5.873,2.281c-1.107,2.46-0.145,5.415,2.137,6.595l14.973,7.728c7.68,3.872,6.932,11.08,5.273,14.403
			l-6.896,13.636c-1.271,2.704,0.654,4.586,2.021,5.217c2.205,1.011,4.859,0.135,5.902-1.892l9.252-18.087
			c-0.516,0.412-1.906,0.916-3.129,0.358c4.059-6.583-3.141-6.316-0.773-12.279c-0.527,0.697-2.24,1.134-3.08,0.836
			c3.637-8.168-4.574-8.094-0.416-14.525c-0.438,0.35-2.176,0.249-2.908-0.367c5.074-5.064,0.502-8.481,6.686-10.554
			c-0.9,0.038-2.033-0.916-2.25-1.974c4.254,0.282,6.26-5.192,12.342-4.409c2.504,0.313,4.689,1.01,6.924,1.703
			c1.271,0.412,2.244-0.05,3.412,0.517c0.439,0.464,0.934,1.854,0.934,1.854c1.586,0.336,4.182,1.073,4.902,1.83
			c0.219,0.811,0,1.573-0.313,2.18c0,0-0.359,0.139-0.461,0.576c-0.445,2.241-1.16,4.172-2.449,5.333l-3.762-0.941
			c0,0-2.982,1.653-3.951,4.138c-0.566,1.445-0.313,2.344,1.443,2.373c1.514,0.025,4.471-0.621,5.643-0.802
			c0.5,1.275,0.73,3.709-0.381,4.547c-0.607,0.462-3.775,0.294-4.734,0.218c0.25,3.46,2.73,5.568,6.984,4.176
			c12.211-3.97,20.041-5.102,24.471-15.026c-0.15-0.695-1.004-7.486,3.891-9.207c-0.617,1.889-1.135,4.13-0.596,5.963
			c0.803-3.144,3.178-5.223,6.889-4.849c-2.113,1.501-3.414,3.365-3.43,5.285c1.545-1.158,4.434-1.544,6.547-0.618
			c-10.098,4.56-6.645,12.358-2.193,13.063c-1.854,1.521-4.834,1.109-6.623,0l-6.053,7.746c1.131,0.244,2.258,1.132,2.654,1.891
			c-1.209-0.078-3.166,0.13-3.969,0.928c-0.463,1.213-1.051,3.402-0.254,6.576c-2.371-1.228-3.32-2.94-3.676-4.486l-8.898,5.201
			c4.5,2.372,17.934,9.138,24.803,5.981c1.041-0.492,7.82-3.379,11.531,0.397c-2.529-0.087-4.975,0.942-5.428,1.96
			c2.617,0.296,5.758,1.43,6.545,4.317c-0.992-0.618-4.271-0.866-5.969-0.567c1.486,1.16,2.658,3.275,2.477,5.982
			c0,0-5.426-5.028-9.898-3.74c-2.057,0.617-1.055,4.254-0.639,5.114c-3.379-0.487-4.232-3.823-4.246-4.081l-10.367-0.436
			c-0.699,0.334-0.992,1.803-0.336,2.99c-1.797-0.493-2.582-1.542-3.018-3.222c-2.178,0.269-3.4,1.748-3.635,3.968
			c-1.52-1.569-1.318-3.968-0.699-5.212l-11.287-2.736l-3.916,4.329c0,0,20.205,12.639,27.09,12.303
			c-1.055,2.452-6.035,2.164-8.299,1.316c0.695,1.262,0.191,3.094,0.191,3.094s-1.518,0.104-3.104-1.895
			c0,0-3.043,6.049-2.553,7.124c1.418,3.122,11.313,3.786,11.313,3.786c1.803-1.425,6.75-3.105,9.508-1.006
			c-2.113,0.093-3.813,1.706-4.098,2.709c1.162,0.009,5.209,0.501,6.121,4.25c-2.266-1.031-5.012-1.031-5.859-0.586
			c1.301,0.928,2.889,3.046,2.477,5.706c-2.941-3.09-6.984-4.47-9.664-3.877c-1.576,0.355-1.68,2.712-1.215,4.404
			c-2.242-0.589-3.529-2.911-4.008-4.122l-10.824-3.381c0,0-0.348,0.965-0.318,2.512c-1.355-0.164-2.699-1.816-2.791-3.025
			c0,0-2.033,3.09-5.225,2.552c1.857-3.132,4.4-11.185,4.391-13.249c-0.012-2.598-7.893-4.16-9.207-4.56l-3.813,5.564
			c0,0,3.881,1.905,4.551,4.38c-3.389-1.498-6.133-1.342-7.008-1.137c-0.738,0.806-1.498,2.194-1.793,3.842
			c-0.748-0.461-1.707-1.868-1.811-3.298c-8.66,2.759-8.668,4.083-6.557,12.808c3.926-0.39,10.174-0.578,11.543,3.43
			c-2.371-0.657-5.104-0.234-6.57,0.336c1.844,0.615,5.139,2.525,4.354,6.311c0,0-3.195-3.578-6.879-2.939
			c1.967,1.22,4.43,3.768,2.266,6.936c-1.945-4.033-6.504-4.434-8.412-4.047l-2.703-5.85c-1.094-2.396-4.123-2.09-4.459,0.939
			c-2.861-3.519,0.361-7.357,1.279-7.824l-2.461-5.316c-0.805,0.086-2.852,0.606-4.061-0.829c1.275-0.39,2.381-1.223,2.875-2.088
			c-1.275,0.087-4.627,0.604-6.223-1.583c5.398-1.08,17.959-8.75,18.916-13.482c-2.465,2.001-6.033,2.581-9.121,1.188
			c-2.002-0.874-3.508-2.427-4.291-4.38c-2.23-4.613-8.119-0.875-9.045-9.406c2.354,3.355,7.561,1.113,8.58,5.273
			c2.088-9.189-11.186-3.189-11.273-17.071c3.275,5.668,14.984,3.646,14.02,10.836c5.025-14.831-17.447-5.22-16.225-24.471
			c4.395,8.683,21.83,6.393,20.174,16.678l0.941-1.898c1.326-2.712,1.018-6.48-3.066-8.694l-15.369-7.939
			C178.658,35.591,176.896,30.426,178.855,25.815"/>
		<g>
			<path fill="#CC295B" d="M77.785,164.77v-0.48v-0.479v-10.033c0-0.624,0.528-1.152,1.152-1.152c0.672,0,1.2,0.528,1.2,1.152v3.408
				c2.016-2.736,5.281-4.561,8.929-4.561c6.336,0,11.377,5.232,11.377,11.665c0,6.385-5.041,11.714-11.377,11.714
				c-3.648,0-6.913-1.824-8.929-4.608v13.44c0,0.624-0.528,1.152-1.2,1.152c-0.624,0-1.152-0.528-1.152-1.152V164.77z
				 M80.137,164.289c0,5.185,4.081,9.361,8.929,9.409c4.992-0.048,9.024-4.225,9.024-9.409c0-5.184-4.032-9.313-9.024-9.313
				c-4.752,0-8.737,3.937-8.929,8.929V164.289z"/>
			<path fill="#CC295B" d="M109.464,153.824c0-0.672,0.528-1.151,1.2-1.151c0.576,0,1.104,0.479,1.104,1.151v5.185
				c0.096-0.191,0.192-0.384,0.336-0.576c1.776-2.784,4.896-5.76,9.409-5.76c0.624,0,1.152,0.479,1.152,1.151
				c0,0.624-0.528,1.152-1.152,1.152c-3.072,0-5.185,1.729-6.817,3.841c-1.584,2.111-2.496,4.512-2.832,5.472
				c-0.096,0.192-0.096,0.288-0.096,0.385v10.32c0,0.672-0.528,1.152-1.104,1.152c-0.672,0-1.2-0.48-1.2-1.152V153.824z"/>
			<path fill="#CC295B" d="M149.066,153.776v21.218c0,0.624-0.528,1.152-1.152,1.152s-1.152-0.528-1.152-1.152v-3.504
				c-2.016,2.784-5.232,4.656-8.833,4.656c-6.192,0-11.137-5.328-11.137-11.761s4.945-11.762,11.137-11.762
				c3.6,0,6.816,1.824,8.833,4.608v-3.456c0-0.672,0.528-1.152,1.152-1.152S149.066,153.104,149.066,153.776z M146.762,164.386
				c0-5.28-3.984-9.505-8.833-9.505c-4.8,0-8.833,4.225-8.833,9.505s4.032,9.456,8.833,9.456
				C142.778,173.842,146.762,169.666,146.762,164.386z"/>
			<path fill="#CC295B" d="M167.257,153.776c0,0.576-0.576,1.152-1.152,1.152h-3.023v17.138c0,1.151,1.151,1.728,1.728,1.728
				s1.2,0.624,1.2,1.2s-0.624,1.152-1.2,1.152c-2.352,0-4.128-1.729-4.128-4.08v-17.138h-2.929c-1.151,0-1.151-0.576-1.151-1.152
				s0-1.152,1.151-1.152h2.929v-8.736c0-0.576,0.576-1.152,1.152-1.152c0.624,0,1.248,0.576,1.248,1.152v8.736h3.023
				C166.681,152.624,167.257,153.2,167.257,153.776z"/>
			<path fill="#CC295B" d="M187.561,152.624c6.192,0,11.137,5.377,11.137,11.762c0,6.384-4.944,11.761-11.137,11.761
				c-6.145,0-11.137-5.377-11.137-11.761C176.424,158.001,181.416,152.624,187.561,152.624z M187.561,173.842
				c4.801,0,8.833-4.224,8.833-9.456s-4.032-9.505-8.833-9.505c-4.8,0-8.833,4.272-8.833,9.505S182.761,173.842,187.561,173.842z"/>
			<path fill="#CC295B" d="M205.896,171.25c0.384-0.48,1.104-0.576,1.633-0.144c1.632,1.2,4.224,2.735,7.2,2.735
				c1.824,0,3.408-0.575,4.464-1.439c1.152-0.769,1.776-1.824,1.776-2.881c-0.048-1.104-0.479-1.872-1.68-2.88
				c-1.008-0.768-2.688-1.344-4.992-1.729l-0.097-0.048c-2.112-0.384-3.984-0.864-5.328-1.824c-1.488-0.863-2.544-2.399-2.544-4.224
				c0-1.872,1.056-3.505,2.544-4.608c1.392-0.961,3.36-1.585,5.761-1.585c3.024,0,5.185,1.393,7.008,2.545
				c0.528,0.384,0.673,1.104,0.337,1.632c-0.337,0.528-1.057,0.672-1.585,0.336c-1.728-1.152-3.456-2.353-5.76-2.353
				c-1.921,0-3.457,0.528-4.465,1.345c-0.96,0.768-1.488,1.728-1.488,2.688c0,0.96,0.433,1.632,1.345,2.352
				c1.056,0.721,2.64,1.296,4.8,1.633h0.097c2.256,0.336,4.08,1.008,5.712,1.92c1.536,1.008,2.641,2.832,2.641,4.8
				c0,1.969-1.104,3.553-2.688,4.753c-1.632,1.2-3.553,1.872-5.856,1.872c-3.792-0.048-6.769-1.824-8.688-3.36
				C205.56,172.354,205.512,171.73,205.896,171.25z"/>
		</g>
	</g>
</g>
<g id="Logo_-_Simple">
</g>
<g id="Thumbnail_1">
</g>
<g id="Avatar_1">
	<g id="Head">
		<g id="Shape">
		</g>
		<g id="Eyes">
			<g id="Right">
			</g>
			<g id="Left">
			</g>
		</g>
		<g id="Mouth_1_">
		</g>
	</g>
	<g id="Neck">
		<g id="Shape_1_">
		</g>
	</g>
</g>
<g id="Avatar_2">
	<g id="Neck_1_">
		<g id="Shape_2_">
		</g>
	</g>
	<g id="Head_1_">
		<g id="Shape_3_">
		</g>
		<g id="Mouth">
		</g>
		<g id="Eyes_1_">
		</g>
	</g>
</g>
<g id="Avatar_3">
	<g id="Head_2_">
		<g id="Shape_4_" display="none">
		</g>
		<g id="Mouth_2_">
		</g>
		<g id="Eyes_2_">
		</g>
		<g id="Antenna_1_" display="none">
		</g>
	</g>
</g>
</svg>
